<svg width="199" height="161" viewBox="0 0 199 161" fill="none" xmlns="http://www.w3.org/2000/svg">
<path
id = "Inital" 
d="M8.58735 83.6913C7.54952 82.686 3.33116 81.6264 4.77606 81.6264C27.0731 81.6264 40.3707 61.9976 53.1133 45.708C60.3185 36.4972 66.9174 26.8015 72.2009 16.3469C74.1085 12.5723 75.3077 8.33266 77.4221 4.68507C78.4986 2.82787 73.8239 12.4996 73.3575 13.9322C61.5343 50.2446 84.6944 89.061 65.0683 124.366C58.3329 136.483 48.014 147.933 34.9373 153.335C28.6269 155.941 17.9681 158.583 11.2068 155.836C6.25851 153.826 9.1554 150.841 12.219 148.599C23.4195 140.403 34.7372 132.343 46.0804 124.346C76.374 102.991 105.758 80.4996 135.582 58.5292C141.472 54.1901 145.667 49.9298 148.737 43.2081C149.263 42.0574 150.795 36.2646 152.546 36.2646C153.661 36.2646 151.012 41.4913 150.757 41.9188C145.715 50.3925 138.325 57.388 131.589 64.4698C120.373 76.2617 111.205 88.2966 104.964 103.439C99.3895 116.964 86.2681 141.327 110.189 143.972C123.63 145.458 138.021 138.554 149.089 131.575C158.676 125.53 164.944 116.499 166.975 105.343C170.185 87.7148 144.592 100.423 137.704 105.554C136.518 106.437 129.273 111.612 130.897 114.09C132.156 116.009 140.227 110.519 141.143 109.98C151.178 104.064 161.001 96.6494 168.143 87.36C169.092 86.1261 176.609 75.7205 171.058 79.8516C165.582 83.927 163.948 90.8934 165.282 97.4461C168.223 111.885 182.562 115.57 194.195 109.171" stroke="#1E1E1E" stroke-width="8" stroke-linecap="round" stroke-linejoin="round"/>
</svg>
